<?xml version="1.0" standalone="no"?>
<svg viewBox="0 0 200 200" xmlns="http://www.w3.org/2000/svg">
  <path fill="#1A1579" d="M36.7,-61.5C43.2,-59.8,41.1,-41.2,41.2,-28.1C41.3,-15,43.6,-7.5,45,0.8C46.4,9.1,46.8,18.2,44,26.6C41.2,35.1,35.3,42.9,27.4,54.4C19.5,66,9.8,81.1,-1.9,84.5C-13.7,87.9,-27.3,79.4,-40.7,71.1C-54.1,62.8,-67.1,54.5,-68.2,42.7C-69.3,30.9,-58.3,15.4,-53.9,2.5C-49.5,-10.4,-51.7,-20.7,-48.8,-29.3C-45.9,-37.9,-37.8,-44.8,-28.8,-45C-19.9,-45.3,-9.9,-39,2.6,-43.5C15.1,-48,30.2,-63.2,36.7,-61.5Z" transform="translate(100 100)" />
</svg>
